# xmcd CD database file
#
# Track frame offsets:
#	150
#	12574
#	30824
#	46965
#	67329
#	85630
#	97391
#	123313
#	150322
#	171939
#
# Disc length: 2501 seconds
#
# Revision: 3
# Processed by: cddbd v1.5.2PL0 Copyright (c) Steve Scherf et al.
# Submitted via: CDex 1.51
#
DISCID=7a09c30a
DTITLE=Mambo Bidon - Steel Band
DYEAR=2006
DGENRE=Mambo
TTITLE0=Mambo N°5 - Perez Prado
TTITLE1=Calypso parade - Traditionnel
TTITLE2=La valse du guichet - Philippe Gal
TTITLE3=Libertango - Astor Piazzola
TTITLE4=Son de la loma - Miguel Matamoros
TTITLE5=1ère Gymnopédie - Éric Satie
TTITLE6=Chi-chi - Philippe Gal
TTITLE7=El negro bembon - Bobby Capò
TTITLE8=Is al rouhac - Mohamed El Mouji
TTITLE9=La comparsa - Ernesto Lecuona
EXTD=YEAR: 2006
EXTT0=
EXTT1=
EXTT2=
EXTT3=
EXTT4=
EXTT5=
EXTT6=
EXTT7=
EXTT8=
EXTT9=
PLAYORDER=
